<svg width="161" height="57" viewBox="0 0 161 57" fill="none" xmlns="http://www.w3.org/2000/svg">
<path d="M144.28 41.27C143.688 41.8 142.731 42.069 141.413 42.069H140.125V39.476H141.767C142.419 39.476 142.748 39.267 142.748 38.845C142.748 38.609 142.68 38.449 142.541 38.357C142.402 38.261 142.169 38.218 141.843 38.218C141.413 38.218 141.061 38.267 140.778 38.369C140.496 38.473 140.261 38.603 140.072 38.761C139.884 38.919 139.588 39.204 139.188 39.612L138.055 40.749C137.196 41.629 136.244 42.069 135.201 42.069C134.076 42.069 133.22 41.808 132.633 41.295C132.046 40.775 131.749 40.023 131.749 39.031C131.749 37.845 132.064 36.99 132.692 36.47C133.323 35.949 134.306 35.685 135.646 35.685V38.37L134.741 38.387C134.567 38.387 134.429 38.436 134.326 38.532C134.225 38.63 134.174 38.765 134.174 38.939C134.174 39.143 134.231 39.297 134.342 39.398C134.456 39.502 134.609 39.553 134.802 39.553C135.234 39.553 135.677 39.306 136.139 38.817L137.609 37.282C137.958 36.926 138.289 36.63 138.601 36.393C138.911 36.156 139.281 35.968 139.702 35.825C140.129 35.68 140.632 35.61 141.216 35.61C142.513 35.61 143.499 35.846 144.167 36.325C144.836 36.798 145.173 37.586 145.173 38.679C145.172 39.872 144.876 40.736 144.28 41.27Z" fill="black"/>
<path d="M15.212 41.992V15.427H26.412V20.561H20.909V25.726H26.184V30.737H20.909V36.829H26.769V41.992H15.212Z" fill="black"/>
<path d="M29.586 41.992V15.427H38.114L40.458 31.634L42.802 15.427H51.397V41.992H46.286V22.849L43.063 41.992H38.052L34.633 22.849V41.992H29.586Z" fill="black"/>
<path d="M53.999 41.992V15.427H65.197V20.561H59.694V25.726H64.97V30.737H59.694V36.829H65.555V41.992H53.999Z" fill="black"/>
<path d="M75.212 25.262C75.993 25.262 76.382 24.458 76.382 22.85C76.382 22.149 76.351 21.623 76.286 21.272C76.219 20.921 76.102 20.678 75.927 20.545C75.755 20.41 75.503 20.342 75.179 20.342H73.876V25.261H75.212V25.262ZM68.18 15.427H76.773C78.14 15.427 79.198 15.72 79.947 16.309C80.694 16.897 81.199 17.721 81.462 18.782C81.722 19.845 81.852 21.199 81.852 22.85C81.852 24.354 81.644 25.53 81.232 26.375C80.82 27.222 80.103 27.809 79.084 28.138C79.929 28.302 80.543 28.706 80.923 29.345C81.302 29.983 81.492 30.85 81.492 31.943L81.428 41.993H75.957V31.602C75.957 30.859 75.806 30.385 75.502 30.179C75.199 29.974 74.646 29.87 73.841 29.87V41.992H68.18V15.427Z" fill="black"/>
<path d="M89.142 33.456H91.683L90.447 19.942H90.186L89.142 33.456ZM83.278 41.992L85.98 15.427H95.452L98.123 41.992H92.815L92.426 37.693H89.04L88.714 41.992H83.278Z" fill="black"/>
<path d="M100.072 41.992V15.427H105.671V37.476H111.432V41.992H100.072Z" fill="black"/>
<path d="M119.28 37.293C120.302 37.293 120.813 36.817 120.813 35.869V22.168C120.813 21.572 120.764 21.123 120.667 20.824C120.568 20.525 120.39 20.324 120.129 20.22C119.867 20.118 119.468 20.065 118.925 20.065H118.308V37.292H119.28V37.293ZM112.995 15.428H120.707C122.705 15.428 124.202 15.952 125.202 17.006C126.2 18.055 126.708 19.612 126.729 21.673L126.794 34.108C126.818 36.725 126.34 38.693 125.362 40.013C124.385 41.331 122.769 41.992 120.513 41.992H112.993V15.428H112.995Z" fill="black"/>
<path d="M7.05501 7.72902H152.985V49.569H7.05501V7.72902ZM2.97601 53.648H157.064V3.65002H2.97601V53.648Z" fill="black"/>
<path d="M145.05 33.6H134.404V35.165H131.872V29.397H134.404V30.961H145.05V33.6Z" fill="black"/>
<path d="M140.815 26.099V24.902L134.111 25.485V25.609L140.815 26.099ZM145.05 29.014L131.872 27.741V23.277L145.05 22.02V24.519L142.916 24.702V26.299L145.05 26.451V29.014Z" fill="black"/>
<path d="M145.05 19.627H140.707L131.872 21.728V19.12L136.337 18.384L131.872 17.647V15.04L140.707 17.142H145.05V19.627Z" fill="black"/>
</svg>
